<svg width="100" height="100" viewBox="0 0 100 100" xmlns="http://www.w3.org/2000/svg">
  <g fill="hsl(var(--primary))">
    <path d="M50,10 C27.9,10 10,27.9 10,50 C10,72.1 27.9,90 50,90 C72.1,90 90,72.1 90,50 C90,27.9 72.1,10 50,10 Z M50,82 C32.3,82 18,67.7 18,50 C18,32.3 32.3,18 50,18 C67.7,18 82,32.3 82,50 C82,67.7 67.7,82 50,82 Z" />
    <path d="M50,25 C36.2,25 25,36.2 25,50 C25,63.8 36.2,75 50,75 C63.8,75 75,63.8 75,50 C75,36.2 63.8,25 50,25 Z M50,67 C40.6,67 33,59.4 33,50 C33,40.6 40.6,33 50,33 C59.4,33 67,40.6 67,50 C67,59.4 59.4,67 50,67 Z" />
    <circle cx="50" cy="50" r="8" fill="hsl(var(--foreground))"/>
  </g>
</svg>
